<mxfile host="app.diagrams.net" modified="2021-08-13T06:03:44.297Z" agent="5.0 (Windows NT 10.0; Win64; x64) AppleWebKit/537.36 (KHTML, like Gecko) Chrome/92.0.4515.131 Safari/537.36" etag="jz4pZd5KJZC4r_q8LHiL" version="14.9.6" type="github">
  <diagram id="aZau_lGHPG9wB61J5XKp" name="Page-1">
    <mxGraphModel dx="1038" dy="469" grid="1" gridSize="10" guides="1" tooltips="1" connect="1" arrows="1" fold="1" page="1" pageScale="1" pageWidth="850" pageHeight="1100" math="0" shadow="0">
      <root>
        <mxCell id="0" />
        <mxCell id="1" parent="0" />
        <mxCell id="Ip8UMKELRMic1-mEeD-X-14" value="User" style="swimlane;fontStyle=0;childLayout=stackLayout;horizontal=1;startSize=26;horizontalStack=0;resizeParent=1;resizeParentMax=0;resizeLast=0;collapsible=1;marginBottom=0;align=center;fontSize=14;" vertex="1" parent="1">
          <mxGeometry x="60" y="80" width="160" height="140" as="geometry" />
        </mxCell>
        <mxCell id="Ip8UMKELRMic1-mEeD-X-15" value="User ID (PK)&#xa;&#xa;Name" style="text;strokeColor=none;fillColor=none;spacingLeft=4;spacingRight=4;overflow=hidden;rotatable=0;points=[[0,0.5],[1,0.5]];portConstraint=eastwest;fontSize=12;" vertex="1" parent="Ip8UMKELRMic1-mEeD-X-14">
          <mxGeometry y="26" width="160" height="54" as="geometry" />
        </mxCell>
        <mxCell id="Ip8UMKELRMic1-mEeD-X-16" value="UserName" style="text;strokeColor=none;fillColor=none;spacingLeft=4;spacingRight=4;overflow=hidden;rotatable=0;points=[[0,0.5],[1,0.5]];portConstraint=eastwest;fontSize=12;" vertex="1" parent="Ip8UMKELRMic1-mEeD-X-14">
          <mxGeometry y="80" width="160" height="30" as="geometry" />
        </mxCell>
        <mxCell id="Ip8UMKELRMic1-mEeD-X-17" value="Password" style="text;strokeColor=none;fillColor=none;spacingLeft=4;spacingRight=4;overflow=hidden;rotatable=0;points=[[0,0.5],[1,0.5]];portConstraint=eastwest;fontSize=12;" vertex="1" parent="Ip8UMKELRMic1-mEeD-X-14">
          <mxGeometry y="110" width="160" height="30" as="geometry" />
        </mxCell>
        <mxCell id="Ip8UMKELRMic1-mEeD-X-19" value="Place Appointment" style="swimlane;fontStyle=0;childLayout=stackLayout;horizontal=1;startSize=26;horizontalStack=0;resizeParent=1;resizeParentMax=0;resizeLast=0;collapsible=1;marginBottom=0;align=center;fontSize=14;" vertex="1" parent="1">
          <mxGeometry x="400" y="82" width="160" height="280" as="geometry" />
        </mxCell>
        <mxCell id="Ip8UMKELRMic1-mEeD-X-20" value="Name&#xa;&#xa;Age&#xa;&#xa;Email Id&#xa;&#xa;Contact&#xa;&#xa;Address&#xa;&#xa;Trainer preference&#xa;&#xa;Package&#xa;&#xa;Weeks&#xa;&#xa;Amount" style="text;strokeColor=none;fillColor=none;spacingLeft=4;spacingRight=4;overflow=hidden;rotatable=0;points=[[0,0.5],[1,0.5]];portConstraint=eastwest;fontSize=12;" vertex="1" parent="Ip8UMKELRMic1-mEeD-X-19">
          <mxGeometry y="26" width="160" height="254" as="geometry" />
        </mxCell>
        <mxCell id="Ip8UMKELRMic1-mEeD-X-23" value="Trainer" style="swimlane;fontStyle=0;childLayout=stackLayout;horizontal=1;startSize=26;horizontalStack=0;resizeParent=1;resizeParentMax=0;resizeLast=0;collapsible=1;marginBottom=0;align=center;fontSize=14;" vertex="1" parent="1">
          <mxGeometry x="680" y="310" width="160" height="116" as="geometry" />
        </mxCell>
        <mxCell id="Ip8UMKELRMic1-mEeD-X-24" value="Trainer ID (PK)" style="text;strokeColor=none;fillColor=none;spacingLeft=4;spacingRight=4;overflow=hidden;rotatable=0;points=[[0,0.5],[1,0.5]];portConstraint=eastwest;fontSize=12;" vertex="1" parent="Ip8UMKELRMic1-mEeD-X-23">
          <mxGeometry y="26" width="160" height="30" as="geometry" />
        </mxCell>
        <mxCell id="Ip8UMKELRMic1-mEeD-X-25" value="Gender" style="text;strokeColor=none;fillColor=none;spacingLeft=4;spacingRight=4;overflow=hidden;rotatable=0;points=[[0,0.5],[1,0.5]];portConstraint=eastwest;fontSize=12;" vertex="1" parent="Ip8UMKELRMic1-mEeD-X-23">
          <mxGeometry y="56" width="160" height="30" as="geometry" />
        </mxCell>
        <mxCell id="Ip8UMKELRMic1-mEeD-X-26" value="Contact" style="text;strokeColor=none;fillColor=none;spacingLeft=4;spacingRight=4;overflow=hidden;rotatable=0;points=[[0,0.5],[1,0.5]];portConstraint=eastwest;fontSize=12;" vertex="1" parent="Ip8UMKELRMic1-mEeD-X-23">
          <mxGeometry y="86" width="160" height="30" as="geometry" />
        </mxCell>
        <mxCell id="Ip8UMKELRMic1-mEeD-X-27" value="Address" style="swimlane;fontStyle=0;childLayout=stackLayout;horizontal=1;startSize=26;horizontalStack=0;resizeParent=1;resizeParentMax=0;resizeLast=0;collapsible=1;marginBottom=0;align=center;fontSize=14;" vertex="1" parent="1">
          <mxGeometry x="670" y="40" width="160" height="200" as="geometry" />
        </mxCell>
        <mxCell id="Ip8UMKELRMic1-mEeD-X-28" value="Line 1&#xa;&#xa;Line 2&#xa;&#xa;CityÂ &#xa;&#xa;State&#xa;&#xa;Country&#xa;&#xa;Pin Code" style="text;strokeColor=none;fillColor=none;spacingLeft=4;spacingRight=4;overflow=hidden;rotatable=0;points=[[0,0.5],[1,0.5]];portConstraint=eastwest;fontSize=12;" vertex="1" parent="Ip8UMKELRMic1-mEeD-X-27">
          <mxGeometry y="26" width="160" height="174" as="geometry" />
        </mxCell>
        <mxCell id="Ip8UMKELRMic1-mEeD-X-31" value="" style="edgeStyle=entityRelationEdgeStyle;fontSize=12;html=1;endArrow=ERoneToMany;entryX=0.006;entryY=0.068;entryDx=0;entryDy=0;entryPerimeter=0;exitX=1;exitY=0.143;exitDx=0;exitDy=0;exitPerimeter=0;" edge="1" parent="1" source="Ip8UMKELRMic1-mEeD-X-14" target="Ip8UMKELRMic1-mEeD-X-19">
          <mxGeometry width="100" height="100" relative="1" as="geometry">
            <mxPoint x="220" y="180" as="sourcePoint" />
            <mxPoint x="320" y="80" as="targetPoint" />
          </mxGeometry>
        </mxCell>
        <mxCell id="Ip8UMKELRMic1-mEeD-X-32" value="" style="edgeStyle=entityRelationEdgeStyle;fontSize=12;html=1;endArrow=ERoneToMany;entryX=-0.019;entryY=0.095;entryDx=0;entryDy=0;entryPerimeter=0;" edge="1" parent="1" target="Ip8UMKELRMic1-mEeD-X-27">
          <mxGeometry width="100" height="100" relative="1" as="geometry">
            <mxPoint x="560" y="230" as="sourcePoint" />
            <mxPoint x="660" y="130" as="targetPoint" />
          </mxGeometry>
        </mxCell>
        <mxCell id="Ip8UMKELRMic1-mEeD-X-33" value="" style="edgeStyle=entityRelationEdgeStyle;fontSize=12;html=1;endArrow=ERzeroToMany;startArrow=ERzeroToOne;exitX=1.019;exitY=0.626;exitDx=0;exitDy=0;exitPerimeter=0;entryX=-0.025;entryY=0.095;entryDx=0;entryDy=0;entryPerimeter=0;" edge="1" parent="1" source="Ip8UMKELRMic1-mEeD-X-20" target="Ip8UMKELRMic1-mEeD-X-23">
          <mxGeometry width="100" height="100" relative="1" as="geometry">
            <mxPoint x="570" y="368" as="sourcePoint" />
            <mxPoint x="670" y="268" as="targetPoint" />
          </mxGeometry>
        </mxCell>
      </root>
    </mxGraphModel>
  </diagram>
</mxfile>
